<svg width="348" height="71" viewBox="0 0 348 71" fill="none" xmlns="http://www.w3.org/2000/svg">
<path d="M23.759 10.2763H10.7148V34.5658H23.759V10.2763Z" fill="#FA65A9"/>
<path d="M60.0964 21.4868H36.3373V34.5658H60.0964V21.4868Z" fill="#00D9F8"/>
<path d="M49.3815 47.1776H36.3373V71H49.3815V47.1776Z" fill="#06A9F6"/>
<path d="M23.759 47.1776H0V60.2566H23.759V47.1776Z" fill="#FDD100"/>
<path d="M82.6069 58.3882V29.1511H90.4185V32.9776H90.4782C92.8238 30.1476 95.7256 28.7326 99.1842 28.7326C103.239 28.7326 106.101 30.2672 107.771 33.3364H107.89C110.275 30.2672 113.674 28.7326 118.087 28.7326C124.925 28.7326 128.344 32.9776 128.344 41.4677V58.3882H120.532V43.3212C120.532 38.2591 118.842 35.728 115.463 35.728C113.754 35.728 112.323 36.4454 111.17 37.8804C110.057 39.2755 109.5 41.2485 109.5 43.7995V58.3882H101.689V43.3212C101.689 38.2591 99.9794 35.728 96.5605 35.728C94.732 35.728 93.2412 36.4454 92.0882 37.8804C90.9752 39.2755 90.4185 41.2485 90.4185 43.7995V58.3882H82.6069ZM162.789 43.5006C162.789 44.4174 162.729 45.3541 162.61 46.3107H142.157C142.634 48.0647 143.548 49.4398 144.9 50.4362C146.251 51.4325 147.901 51.9309 149.849 51.9309C152.791 51.9309 155.156 50.8346 156.945 48.6425L162.014 53.3659C159.152 57.0728 154.918 58.9263 149.313 58.9263C144.82 58.9263 141.143 57.531 138.281 54.741C135.458 51.951 134.047 48.2837 134.047 43.7397C134.047 39.3153 135.419 35.708 138.162 32.9179C140.944 30.1277 144.502 28.7326 148.835 28.7326C152.93 28.7326 156.269 30.1277 158.853 32.9179C161.477 35.6682 162.789 39.1957 162.789 43.5006ZM148.776 35.5486C147.186 35.5486 145.794 36.007 144.602 36.9237C143.449 37.8006 142.654 39.0562 142.216 40.6905H155.037C154.163 37.2625 152.076 35.5486 148.776 35.5486ZM181.134 58.9263C177.079 58.9263 173.74 57.531 171.116 54.741C168.492 51.951 167.18 48.3235 167.18 43.8593C167.18 39.4748 168.492 35.8675 171.116 33.0374C173.74 30.1675 177.019 28.7326 180.955 28.7326C184.652 28.7326 187.594 30.0081 189.78 32.5591H189.899V14.3831H197.651V58.3882H190.198V54.8008H190.138C188.031 57.5511 185.03 58.9263 181.134 58.9263ZM177.198 49.6589C178.59 51.1336 180.379 51.8711 182.565 51.8711C184.751 51.8711 186.56 51.1336 187.991 49.6589C189.462 48.1843 190.198 46.2709 190.198 43.9191C190.198 41.5674 189.482 39.6143 188.051 38.0597C186.62 36.5052 184.791 35.728 182.565 35.728C180.418 35.728 178.629 36.4853 177.198 38C175.807 39.4747 175.111 41.4478 175.111 43.9191C175.111 46.231 175.807 48.1441 177.198 49.6589ZM209.773 25.205C208.342 25.205 207.149 24.7466 206.195 23.8299C205.281 22.8732 204.824 21.7173 204.824 20.3621C204.824 19.0467 205.281 17.9306 206.195 17.0139C207.149 16.0572 208.342 15.5789 209.773 15.5789C211.165 15.5789 212.337 16.0572 213.291 17.0139C214.245 17.9306 214.723 19.0467 214.723 20.3621C214.723 21.7173 214.245 22.8732 213.291 23.8299C212.337 24.7466 211.165 25.205 209.773 25.205ZM205.778 58.3882V29.1511H213.59V58.3882H205.778ZM231.147 58.9263C226.576 58.9263 222.64 57.4913 219.34 54.6214L223.097 49.1806C225.522 51.4129 228.225 52.5288 231.207 52.5288C232.32 52.5288 233.174 52.3097 233.771 51.8711C234.407 51.4325 234.725 50.8547 234.725 50.1372C234.725 49.5393 234.347 49.0409 233.592 48.6425C232.876 48.2039 231.505 47.6461 229.477 46.9684C226.615 46.0117 224.389 44.8359 222.799 43.4408C221.248 42.0059 220.473 39.993 220.473 37.4021C220.473 34.8112 221.467 32.7185 223.455 31.1242C225.443 29.5298 227.967 28.7326 231.028 28.7326C234.963 28.7326 238.502 29.9483 241.642 32.3797L237.826 38.1793C235.719 36.1066 233.393 35.0703 230.849 35.0703C230.133 35.0703 229.497 35.2496 228.941 35.6084C228.384 35.9671 228.106 36.5052 228.106 37.2227C228.106 38.2192 229.537 39.2555 232.399 40.3317C233.989 40.9296 235.162 41.388 235.917 41.7069C236.673 41.9859 237.567 42.4244 238.601 43.0223C239.635 43.5803 240.35 44.1383 240.748 44.6964C241.185 45.2544 241.562 45.9719 241.88 46.8488C242.238 47.6859 242.417 48.6822 242.417 49.8383C242.417 52.5489 241.443 54.741 239.495 56.4151C237.587 58.0892 234.805 58.9263 231.147 58.9263ZM250.808 70.2265L255.996 56.5945L244.308 29.1511H252.656L259.752 47.088H259.872L266.491 29.1511H274.422L258.739 70.2265H250.808ZM279.26 58.3882V29.1511H287.071V32.9179H287.19C289.536 30.1277 292.637 28.7326 296.493 28.7326C303.529 28.7326 307.047 32.8381 307.047 41.0492V58.3882H299.236V43.0223C299.236 40.3517 298.779 38.4783 297.864 37.4021C296.95 36.286 295.539 35.728 293.63 35.728C291.603 35.728 289.993 36.4255 288.8 37.8206C287.647 39.1758 287.071 41.1489 287.071 43.7397V58.3882H279.26ZM327.733 58.9263C323.36 58.9263 319.762 57.531 316.939 54.741C314.117 51.951 312.706 48.3235 312.706 43.8593C312.706 39.3552 314.117 35.708 316.939 32.9179C319.762 30.1277 323.439 28.7326 327.971 28.7326C330.356 28.7326 332.642 29.191 334.829 30.1077C337.015 30.9846 338.844 32.2801 340.315 33.9941L335.186 38.837C333.517 36.7643 331.29 35.728 328.508 35.728C326.162 35.728 324.254 36.4853 322.783 38C321.352 39.4747 320.637 41.408 320.637 43.7995C320.637 46.231 321.352 48.1843 322.783 49.6589C324.254 51.1336 326.162 51.8711 328.508 51.8711C331.37 51.8711 333.656 50.815 335.365 48.7023L340.434 53.605C337.572 57.1527 333.338 58.9263 327.733 58.9263Z" fill="#111827"/>
</svg>
